<!DOCTYPE svg PUBLIC "-//W3C//DTD SVG 1.1//EN" "http://www.w3.org/Graphics/SVG/1.1/DTD/svg11.dtd">
<!-- Uploaded to: SVG Repo, www.svgrepo.com, Transformed by: SVG Repo Mixer Tools -->
<svg fill="#8080ff" height="99px" width="99px" version="1.1" id="Layer_1" xmlns="http://www.w3.org/2000/svg" xmlns:xlink="http://www.w3.org/1999/xlink" viewBox="0 0 512 512" xml:space="preserve" stroke="#8080ff">

<g id="SVGRepo_bgCarrier" stroke-width="0"/>

<g id="SVGRepo_tracerCarrier" stroke-linecap="round" stroke-linejoin="round"/>

<g id="SVGRepo_iconCarrier"> <g> <g> <circle cx="178.088" cy="263.794" r="14.579"/> </g> </g> <g> <g> <circle cx="333.906" cy="263.794" r="14.579"/> </g> </g> <g> <g> <path d="M307.329,283.068H204.672c-4.832,0-8.749,3.916-8.749,8.749c0,33.127,26.951,60.078,60.078,60.078 c33.127,0,60.078-26.951,60.078-60.078C316.079,286.985,312.161,283.068,307.329,283.068z M256.001,334.397 c-20.48,0-37.63-14.534-41.677-33.83h11.896v4.88c0,4.833,3.917,8.749,8.749,8.749s8.749-3.916,8.749-8.749v-4.88h24.564v4.88 c0,4.833,3.917,8.749,8.749,8.749c4.832,0,8.749-3.916,8.749-8.749v-4.88h11.896C293.63,319.863,276.481,334.397,256.001,334.397z "/> </g> </g> <g> <g> <path d="M510.94,222.542l-12.489-23.019c-13.7-25.249-44.763-35.384-70.716-23.075l-8.027,3.808 c-9.936-19.91-24.024-37.397-41.13-51.317l5.301-7.249c11.469-15.684,33.209-19.669,49.496-9.067l21.948,14.288 c4.047,2.638,9.469,1.491,12.105-2.558c2.636-4.05,1.49-9.469-2.559-12.105L442.921,97.96 c-24.074-15.676-56.213-9.787-73.168,13.403l-5.341,7.303c-24.136-15.5-52.829-24.498-83.583-24.498H231.17 c-30.754,0-59.446,8.998-83.582,24.498l-5.341-7.303C125.293,88.174,93.154,82.286,69.079,97.96l-21.948,14.286 c-4.049,2.636-5.196,8.055-2.559,12.105c2.636,4.05,8.057,5.196,12.105,2.558l21.949-14.288 c16.283-10.604,38.024-6.619,49.495,9.067l5.301,7.249c-17.105,13.921-31.194,31.407-41.13,51.317l-8.027-3.808 c-25.955-12.312-57.017-2.173-70.716,23.075L1.06,222.542c-2.304,4.247-0.729,9.559,3.518,11.863 c1.326,0.72,2.755,1.06,4.165,1.06c3.105,0,6.113-1.657,7.698-4.578l12.489-23.019c9.267-17.081,30.279-23.937,47.837-15.611 l8.602,4.08c-6.019,16.527-9.307,34.354-9.307,52.938c0,2.318,0.061,4.621,0.162,6.914l-7.328-0.488 c-28.666-1.882-53.825,18.936-57.285,47.452l-3.154,25.999c-0.582,4.797,2.835,9.158,7.632,9.74 c0.358,0.043,0.713,0.065,1.065,0.065c4.362-0.001,8.137-3.258,8.675-7.697l3.154-25.999c2.341-19.29,19.369-33.375,38.752-32.1 l10.282,0.685c2.939,18.387,9.121,35.704,17.941,51.349l-5.671,1.543c-27.716,7.547-44.703,35.459-38.672,63.544l5.499,25.606 c0.882,4.105,4.51,6.914,8.546,6.914c0.608,0,1.226-0.064,1.845-0.197c4.725-1.015,7.732-5.667,6.717-10.392l-5.499-25.606 c-4.081-18.999,7.41-37.88,26.159-42.986l11.016-2.999c28.239,38.622,73.872,63.761,125.273,63.761h49.658 c51.401,0,97.034-25.139,125.273-63.761l11.015,2.999c18.75,5.106,30.241,23.988,26.16,42.986l-5.499,25.606 c-1.015,4.725,1.992,9.377,6.717,10.392c0.619,0.133,1.237,0.197,1.846,0.197c4.035,0,7.664-2.809,8.546-6.914l5.499-25.606 c6.031-28.085-10.955-55.997-38.672-63.544l-5.671-1.543c8.819-15.645,15.001-32.961,17.941-51.349l10.282-0.685 c19.377-1.272,36.411,12.808,38.751,32.1l3.154,25.999c0.538,4.44,4.313,7.697,8.675,7.697c0.351,0,0.707-0.022,1.065-0.065 c4.797-0.582,8.214-4.942,7.632-9.74l-3.154-25.999c-3.459-28.516-28.632-49.371-57.284-47.452l-7.328,0.488 c0.102-2.293,0.162-4.596,0.162-6.914c0-18.582-3.289-36.411-9.307-52.938l8.602-4.08c17.556-8.326,38.569-1.471,47.837,15.611 l12.489,23.019c1.585,2.921,4.593,4.579,7.698,4.578c1.409,0,2.839-0.341,4.165-1.06 C511.669,232.102,513.244,226.791,510.94,222.542z M417.673,263.794c-0.111,0.527-0.176,1.07-0.187,1.625 c-8.018,68.298-66.24,121.465-136.657,121.465H231.17c-70.416,0-128.638-53.167-136.657-121.464 c-0.01-0.555-0.076-1.098-0.187-1.626c-0.503-4.772-0.765-9.615-0.765-14.519c0-75.878,61.731-137.61,137.609-137.61h49.658 c75.878,0,137.609,61.732,137.609,137.61C418.438,254.178,418.175,259.022,417.673,263.794z"/> </g> </g> </g>

</svg>