<svg width="45" height="32" viewBox="0 0 45 32" fill="none" xmlns="http://www.w3.org/2000/svg">
<path fill-rule="evenodd" clip-rule="evenodd" d="M28 13.1814L29.116 14.2965L30.5171 12.9863C31.0238 13.2851 31.5823 13.5101 32.1765 13.6458V15.5H34.8235V13.6458C35.3544 13.5246 35.8568 13.332 36.3192 13.0792L37.6746 14.4335L39.7551 12.4879L38.3996 11.1334C38.7087 10.6436 38.9415 10.1037 39.0818 9.5294H41V6.97058H39.0818C38.9564 6.45741 38.7573 5.97179 38.4957 5.52477L39.8967 4.21461L37.884 2.20348L36.4828 3.51375C35.9761 3.21489 35.4177 2.9899 34.8235 2.85423V1H32.1765V2.85425C31.6456 2.97546 31.1432 3.16798 30.6808 3.42079L29.3254 2.0665L28 3.30602V4.76659L28.6005 5.36656C28.3453 5.7709 28.1421 6.2093 28 6.67307V9.82686C28.1238 10.2308 28.2938 10.6155 28.5043 10.9752L28 11.4468V13.1814ZM36.5882 8.25C36.5882 9.89874 35.2056 11.2353 33.5 11.2353C31.7944 11.2353 30.4117 9.89874 30.4117 8.25C30.4117 6.60127 31.7944 5.26471 33.5 5.26471C35.2056 5.26471 36.5882 6.60127 36.5882 8.25Z" fill="#666666"/>
<rect x="6" y="1" width="11" height="4" fill="#666666"/>
<rect x="6" y="6" width="11" height="4" fill="#666666"/>
<rect x="6" y="11" width="11" height="4" fill="#666666"/>
<path d="M2.04944 15.7273H4.25683L9.44717 28.4048H9.62615L14.8165 15.7273H17.0239V31H15.2938V19.3963H15.1446L10.3719 31H8.70143L3.92871 19.3963H3.77956V31H2.04944V15.7273Z" fill="#666666"/>
<path d="M19.9759 15.7273L24.5099 28.5838H24.6889L29.223 15.7273H31.1619L25.554 31H23.6449L18.0369 15.7273H19.9759Z" fill="#666666"/>
<path d="M44.1392 20.7H42.2898C42.1804 20.168 41.989 19.7007 41.7156 19.298C41.4471 18.8953 41.119 18.5572 40.7312 18.2838C40.3484 18.0054 39.9233 17.7966 39.456 17.6574C38.9886 17.5182 38.5014 17.4486 37.9943 17.4486C37.0696 17.4486 36.2319 17.6822 35.4812 18.1496C34.7354 18.6169 34.1413 19.3055 33.6989 20.2153C33.2614 21.1251 33.0426 22.2412 33.0426 23.5636C33.0426 24.8861 33.2614 26.0022 33.6989 26.912C34.1413 27.8218 34.7354 28.5104 35.4812 28.9777C36.2319 29.445 37.0696 29.6787 37.9943 29.6787C38.5014 29.6787 38.9886 29.6091 39.456 29.4699C39.9233 29.3307 40.3484 29.1244 40.7312 28.8509C41.119 28.5725 41.4471 28.232 41.7156 27.8293C41.989 27.4216 42.1804 26.9543 42.2898 26.4273H44.1392C44 27.2078 43.7464 27.9063 43.3786 28.5228C43.0107 29.1393 42.5533 29.6638 42.0064 30.0963C41.4595 30.5239 40.8455 30.8495 40.1644 31.0732C39.4883 31.2969 38.7649 31.4088 37.9943 31.4088C36.6918 31.4088 35.5334 31.0906 34.5192 30.4543C33.505 29.8179 32.707 28.9131 32.1254 27.7398C31.5437 26.5665 31.2528 25.1744 31.2528 23.5636C31.2528 21.9528 31.5437 20.5608 32.1254 19.3875C32.707 18.2142 33.505 17.3094 34.5192 16.673C35.5334 16.0366 36.6918 15.7185 37.9943 15.7185C38.7649 15.7185 39.4883 15.8303 40.1644 16.054C40.8455 16.2778 41.4595 16.6059 42.0064 17.0384C42.5533 17.466 43.0107 17.988 43.3786 18.6045C43.7464 19.216 44 19.9145 44.1392 20.7Z" fill="#666666"/>
<path d="M20.5345 6.82776C20.1946 5.97927 19.4985 5.32337 18.6313 5.03451L18 4.82422L18 1.27L19.5195 1.5476C21.145 1.84457 22.6716 2.53972 23.9627 3.57091L24.5 4L24.5342 4.03392C25.5012 4.99447 26.2616 6.14256 26.7688 7.40769L27 7.98438L26.7491 8.61041C26.2547 9.84402 25.5193 10.9667 24.586 11.9128L24.5 12L23.9635 12.4285C22.6718 13.4601 21.1446 14.1553 19.5184 14.4521L17.9958 14.73L17.9958 11.1758L18.6468 10.9492C19.5046 10.6507 20.1937 9.98921 20.5318 9.14626V9.14626C20.8295 8.40402 20.8318 7.57013 20.5345 6.82776V6.82776Z" fill="#666666" stroke="#666666" stroke-width="0.5"/>
</svg>
