<svg width="30" height="30" viewBox="0 0 30 30" fill="none" xmlns="http://www.w3.org/2000/svg">
<path fill-rule="evenodd" clip-rule="evenodd" d="M15 30C23.2843 30 30 23.2843 30 15C30 6.71573 23.2843 0 15 0C6.71573 0 0 6.71573 0 15C0 23.2843 6.71573 30 15 30ZM3.51562 17.0625C3.32291 17.0625 3.15756 16.9935 3.01953 16.8555C2.8815 16.7175 2.8125 16.5521 2.8125 16.3594C2.8125 16.1667 2.8815 16.0013 3.01953 15.8633C3.15756 15.7253 3.32291 15.6562 3.51562 15.6562C3.70834 15.6562 3.87369 15.7253 4.01172 15.8633C4.14975 16.0013 4.21875 16.1667 4.21875 16.3594C4.21875 16.487 4.18619 16.6042 4.12109 16.7109C4.05859 16.8177 3.97397 16.9036 3.86719 16.9688C3.76303 17.0312 3.64584 17.0625 3.51562 17.0625ZM12.3418 9V17H11.4043L7.04492 10.7188H6.9668V17H5.99805V9H6.93555L11.3105 15.2969H11.3887V9H12.3418ZM14.2803 17V9H19.1084V9.85938H15.249V12.5625H18.8584V13.4219H15.249V16.1406H19.1709V17H14.2803ZM20.417 9.85938V9H26.417V9.85938H23.9014V17H22.9326V9.85938H20.417ZM7.52841 18.6364H8.15909L9.64206 22.2585H9.69318L11.1761 18.6364H11.8068V23H11.3125V19.6847H11.2699L9.90625 23H9.42899L8.06534 19.6847H8.02274V23H7.52841V18.6364ZM13.0453 23H12.4913L14.0936 18.6364H14.639L16.2413 23H15.6873L15.2486 21.7642H13.484L13.0453 23ZM14.3833 19.3267L15.0822 21.2955H13.6504L14.3492 19.3267H14.3833ZM19.7846 18.6364H20.313V21.5256C20.313 21.8239 20.2427 22.0902 20.1021 22.3246C19.9629 22.5575 19.7661 22.7415 19.5119 22.8764C19.2576 23.0099 18.9594 23.0767 18.617 23.0767C18.2747 23.0767 17.9764 23.0099 17.7221 22.8764C17.4679 22.7415 17.2704 22.5575 17.1298 22.3246C16.9906 22.0902 16.921 21.8239 16.921 21.5256V18.6364H17.4494V21.483C17.4494 21.696 17.4963 21.8857 17.59 22.0518C17.6838 22.2166 17.8173 22.3466 17.9906 22.4418C18.1653 22.5355 18.3741 22.5824 18.617 22.5824C18.8599 22.5824 19.0687 22.5355 19.2434 22.4418C19.4182 22.3466 19.5517 22.2166 19.644 22.0518C19.7378 21.8857 19.7846 21.696 19.7846 21.483V18.6364ZM21.8967 18.6364V23H21.3683V18.6364H21.8967Z" fill="#666666"/>
</svg>
